<svg fill="none" height="16" viewBox="0 0 26 16" width="26" xmlns="http://www.w3.org/2000/svg"><g clip-rule="evenodd" fill-rule="evenodd"><path d="m9.3877 14.2687h6.9587v-12.56094h-6.9587z" fill="#ff5f00"/><path d="m9.82945 7.98847c0-2.54832 1.18785-4.81793 3.03755-6.28049-1.3529-1.06979-3.05964-1.70798-4.91485-1.70798-4.39194 0-7.95215 3.57662-7.95215 7.98847 0 4.41183 3.56021 7.98843 7.95215 7.98843 1.85521 0 3.56195-.6381 4.91485-1.7079-1.8497-1.4628-3.03755-3.7322-3.03755-6.28053z" fill="#eb001b"/><path d="m25.4859 12.9384v-.31h-.0807l-.0925.2133-.0928-.2133h-.0806v.31h.0567v-.2339l.0871.2017h.059l.087-.2021v.2343zm-.5106 0v-.2572h.1034v-.0523h-.2629v.0523h.1032v.2572zm.7589-4.95017c0 4.41187-3.5605 7.98847-7.9522 7.98847-1.8552 0-3.5622-.6382-4.9148-1.708 1.8497-1.4625 3.0375-3.7321 3.0375-6.28047 0-2.5481-1.1878-4.81772-3.0375-6.28049 1.3526-1.069794 3.0596-1.70798414 4.9148-1.70798414 4.3917 0 7.9522 3.57661414 7.9522 7.98847414z" fill="#f79e1b"/></g></svg>