<svg fill="none" height="10" viewBox="0 0 28 10" width="28" xmlns="http://www.w3.org/2000/svg"><path d="m7.15847.871147c.03428.787963.7056 3.794863.7056 3.794863.24669.60902.4591 0 .4591 0 .81218-2.47026-.84758-3.901811-.84758-3.901811-.4237-.25113-.31712.106948-.31712.106948zm9.63693-.429313s.8126.572736 0 .680066c0 0-3.0361.35788-5.2953 2.50654 0 0-3.38934 3.00634-4.65987 6.30027 0 0-.4237 0-.2819-.64416.14104-.64435.98788-3.47288 4.76477-6.945 0 0 3.6372-3.36555 5.4723-1.897716" fill="#ff4600"/><g fill="#000"><path d="m1.34983 5.20781c.13412.02868.25456.04274.43138.04274.69249 0 1.15908-.45173 1.15908-1.02542 0-.51612-.36039-.70228-.82661-.70228-.20547 0-.36094.01443-.45984.04274zm-.388855-2.23718c.289955-.072.721335-.11474 1.145405-.11474.44561 0 .9122.09289 1.22314.34421.27572.21504.43831.52999.43831.96083 0 .5733-.2688 1.03985-.6082 1.31206-.38155.30831-.92644.45895-1.49193.45895-.16989 0-.31787-.02184-.44524-.0359l-.346524 1.82857h-.8056235z"/><path d="m5.95161 4.8345c-.08466-.02185-.19049-.03571-.33903-.03571-.75655 0-1.35051.86793-1.35051 1.66387 0 .36511.1343.66658.49506.66658.38849 0 .85545-.48725 1.01804-1.37665zm-.3321 2.89008c0-.20839.0281-.48763.05676-.78207h-.01424c-.33922.63865-.79907.86071-1.23737.86071-.61494 0-1.01841-.48763-1.01841-1.19011 0-1.1903.82023-2.45962 2.4253-2.45962.37462 0 .77771.07161 1.0465.15767l-.36057 1.82135c-.09927.51612-.15566 1.17605-.14142 1.59207z"/><path d="m11.5571 6.34071c0 .47984.2475.81778.6717.81778.6152 0 1.0254-.8609 1.0254-1.55635 0-.35884-.163-.80335-.6575-.80335-.6576 0-1.0396.8894-1.0396 1.54192zm2.5454-.74541c0 1.18992-.8133 2.20792-1.9866 2.20792-.8701 0-1.4069-.60939-1.4069-1.44143 0-1.1827.8129-2.20811 1.9866-2.20811.9261 0 1.4069.67398 1.4069 1.44162"/><path d="m14.2578 7.72461.4456-2.40948c.0847-.41601.1341-.78169.1767-1.08259h.7357l-.0779.62384h.0139c.3178-.46636.7565-.70286 1.2373-.70286.4947 0 .8766.30147.8766.96102 0 .15747-.0277.40119-.0633.57349l-.3753 2.03658h-.8272l.3673-1.97199c.0219-.12899.0429-.27963.0429-.41602 0-.29406-.106-.50207-.4312-.50207-.3746 0-.8556.45876-1.004 1.27673l-.2969 1.61335z"/><path d="m19.8565 4.77732c-.5164 0-.8554.46598-.9543.8894.8481.00703 1.393-.10771 1.393-.53056 0-.22226-.1768-.35884-.4387-.35884zm.7849 2.74628c-.3396.17913-.7987.27962-1.2162.27962-.9536 0-1.4135-.59477-1.4135-1.44827 0-1.05409.7631-2.20127 1.951-2.20127.6787 0 1.1101.39417 1.1101.98248 0 .89605-.9259 1.1827-2.2551 1.15421-.0144.12176.0139.35827.0918.49466.1345.23688.3812.35865.7069.35865.3892 0 .6998-.10049.948-.22948z"/><path d="m23.0587 4.77732c-.5159 0-.8555.46598-.9544.8894.8482.00703 1.3931-.10771 1.3931-.53056 0-.22226-.1769-.35884-.4387-.35884zm.7848 2.74628c-.339.17913-.7987.27962-1.2154.27962-.9544 0-1.4142-.59477-1.4142-1.44827 0-1.05409.7631-2.20127 1.951-2.20127.6786 0 1.1107.39417 1.1107.98248 0 .89605-.9266 1.1827-2.2557 1.15421-.0146.12176.0138.35827.0917.49466.1345.23688.3818.35865.707.35865.3892 0 .6997-.10049.9479-.22948z"/><path d="m24.3242 7.72461.4029-2.15132c.0918-.49466.1413-1.03244.1761-1.34075h.7144c-.0212.23651-.0421.48023-.0777.73155h.0209c.2344-.46636.6082-.81057 1.0752-.81057.0641 0 .1274.00741.1841.00741l-.1629.8174c-.0424-.00741-.0989-.00741-.1557-.00741-.5872 0-.9616.60237-1.0956 1.34797l-.2618 1.40572z"/><path d="m27.4457 4.55223h.0603c.0618 0 .1027-.03495.1027-.08776 0-.05946-.0429-.08548-.1047-.08548-.0285 0-.0487.00209-.0583.00437zm-.059-.21067c.03-.0055.0729-.00949.1128-.00949.0625 0 .1041.01291.1317.03799.0226.02032.0357.05205.0357.08852 0 .06003-.0372.10068-.0852.11683v.00228c.0348.01215.0553.0454.0669.09327.0146.06382.0255.10885.035.12689h-.0611c-.0073-.01406-.0176-.053-.0292-.11056-.0138-.06382-.0391-.08738-.0923-.08966h-.0553v.20022h-.059z"/><path d="m27.5226 4.15395c-.2247 0-.4074.18521-.4074.41316 0 .22796.1827.41336.4074.41336.2248 0 .4074-.1854.4074-.41336 0-.22795-.1826-.41316-.4074-.41316zm0 .06382c.19 0 .3441.15596.3441.34934 0 .19319-.1541.34972-.3441.34972-.1905 0-.3448-.15653-.3448-.34972 0-.19338.1543-.34934.3448-.34934"/></g></svg>